<svg width="31" height="24" viewBox="0 0 31 24" fill="none" xmlns="http://www.w3.org/2000/svg">
<path d="M23.3916 18C13.7568 18.0105 6.44395 12.2775 6.45411 4.87762C6.45411 4.39375 6.96008 4 7.5835 4H10.5651C11.1241 4 11.5996 4.3185 11.6821 4.74725C11.8787 5.77542 12.2647 6.77641 12.8284 7.71962L12.9447 7.91387C13.0229 8.04459 13.0397 8.19233 12.9923 8.33162C12.9448 8.47091 12.8362 8.59302 12.685 8.67687C11.7611 9.18787 11.4088 10.216 12.1282 11.0175C13.0306 12.0237 14.1679 12.9057 15.4667 13.6049C16.5023 14.1614 17.8294 13.8884 18.4878 13.1735C18.5959 13.056 18.7536 12.9715 18.9337 12.9346C19.1137 12.8977 19.3048 12.9107 19.4737 12.9714L19.7233 13.0606C20.9408 13.4981 22.2329 13.7974 23.5599 13.9496C24.1133 14.0135 24.5244 14.3819 24.5244 14.8159V17.125C24.5244 17.24 24.4951 17.3538 24.4383 17.46C24.3815 17.5663 24.2982 17.6628 24.1932 17.744C24.0882 17.8253 23.9636 17.8897 23.8264 17.9336C23.6893 17.9776 23.5423 18.0001 23.3939 18H23.3916Z" fill="#FFFDE7"/>
</svg>
