<svg width="27" height="20" viewBox="0 0 27 20" fill="none" xmlns="http://www.w3.org/2000/svg">
<path d="M14.7816 2.38811C14.4262 2.14075 13.9654 2.00391 13.4876 2.00391C13.0099 2.00391 12.549 2.14075 12.1937 2.38811L5.09462 7.33011C4.89278 7.47074 4.73136 7.64268 4.62085 7.83477C4.51033 8.02686 4.45319 8.2348 4.45312 8.44511V15.5001C4.45312 15.8979 4.65711 16.2795 5.0202 16.5608C5.38329 16.8421 5.87574 17.0001 6.38923 17.0001H8.9707C9.48418 17.0001 9.97664 16.8421 10.3397 16.5608C10.7028 16.2795 10.9068 15.8979 10.9068 15.5001V11.5001C10.9068 11.3675 10.9748 11.2403 11.0958 11.1466C11.2169 11.0528 11.381 11.0001 11.5522 11.0001H15.4244C15.5955 11.0001 15.7597 11.0528 15.8807 11.1466C16.0017 11.2403 16.0697 11.3675 16.0697 11.5001V15.5001C16.0697 15.8979 16.2737 16.2795 16.6368 16.5608C16.9999 16.8421 17.4924 17.0001 18.0058 17.0001H20.5873C21.1008 17.0001 21.5933 16.8421 21.9563 16.5608C22.3194 16.2795 22.5234 15.8979 22.5234 15.5001V8.44511C22.5234 8.2348 22.4662 8.02686 22.3557 7.83477C22.2452 7.64268 22.0838 7.47074 21.8819 7.33011L14.7829 2.38811H14.7816Z" fill="#FFFDE7"/>
</svg>
