<svg width="23" height="17" viewBox="0 0 23 17" fill="none" xmlns="http://www.w3.org/2000/svg">
<g clip-path="url(#clip0_96_3127)">
<path d="M22.8146 5.45627V12.725C22.8146 13.9817 21.4576 15 19.783 15H3.9036C3.09959 15 2.32851 14.7603 1.75998 14.3337C1.19146 13.907 0.87207 13.3284 0.87207 12.725V5.45627L11.4957 9.8416C11.7122 9.93087 11.975 9.93087 12.1909 9.8416L22.8146 5.45583V5.45627ZM19.783 2C20.5744 2.00006 21.3344 2.23233 21.9006 2.64722C22.4668 3.0621 22.7944 3.6267 22.8134 4.2204L11.8433 8.74873L0.873225 4.21997L0.87438 4.18097C0.906718 3.59434 1.24002 3.03982 1.80457 2.63335C2.36913 2.22688 3.12123 1.99995 3.9036 2H19.783Z" fill="#FFFDE7"/>
</g>
<defs>
<clipPath id="clip0_96_3127">
<rect width="21.9425" height="17" fill="white" transform="translate(0.87207)"/>
</clipPath>
</defs>
</svg>
