<svg width="81" height="71" viewBox="0 0 81 71" fill="none" xmlns="http://www.w3.org/2000/svg">
<path d="M33.9092 34.0745C33.9091 9.37716 48.6076 9.62037 47.0295 34.1848C45.3491 60.3417 33.9092 60.2452 33.9092 34.0745Z" fill="white" stroke="#B39DDB"/>
<path d="M40.5255 62.2912C40.5255 65.5427 46.3893 76.8458 64.2193 58.3424C87.8415 33.8281 66.92 -6.11796 46.1005 4.91495M46.1005 4.91495C39.364 6.54059 32.2076 -7.24535 30.0723 15.9371M46.1005 4.91495C48.7252 6.64304 55.6245 9.66541 53.9984 18.4923" stroke="#B39DDB" stroke-width="3"/>
<path d="M34.0215 34.0518C34.4197 64.6597 47.0299 55.0362 47.0299 34.0518H34.0215Z" fill="#673AB7" stroke="#B39DDB"/>
<path d="M79.5508 25.3574C54.4185 25.9992 45.0135 46.8843 43.4524 57.2466C46.0541 56.0432 53.2868 50.8688 61.4041 39.7978C59.1276 44.1433 52.4282 54.8399 40.5256 62.4612C59.2577 63.6646 69.2091 47.3523 71.5506 39.7978C73.4238 33.7008 77.5995 27.1625 79.5508 25.3574Z" fill="#673AB7" stroke="#B39DDB"/>
<circle cx="29.8395" cy="19.1852" r="3.68127" fill="#673AB7" stroke="#B39DDB"/>
<circle cx="52.6051" cy="21.0426" r="3.68127" fill="#673AB7" stroke="#B39DDB"/>
<circle cx="29.8393" cy="19.3178" r="2.78752" fill="black" fill-opacity="0.2"/>
<circle cx="29.8393" cy="19.3178" r="2.78752" fill="black" fill-opacity="0.2"/>
<circle cx="52.6049" cy="21.1762" r="2.78752" fill="black" fill-opacity="0.2"/>
<path d="M1.5 25.3574C26.6322 25.9992 36.0373 46.8843 37.5983 57.2466C34.9967 56.0432 27.764 50.8688 19.6467 39.7978C21.9232 44.1433 28.6225 54.8399 40.5252 62.4612C21.7931 63.6646 11.8417 47.3523 9.50017 39.7978C7.62696 33.7008 3.45126 27.1625 1.5 25.3574Z" fill="#673AB7" stroke="#B39DDB"/>
</svg>
