<svg width="36" height="34" viewBox="0 0 36 34" fill="none" xmlns="http://www.w3.org/2000/svg">
<path fill-rule="evenodd" clip-rule="evenodd" d="M13.4653 3.5875L24.7413 8.66072C28.1691 10.2029 30.8667 11.4165 32.6968 12.5659C34.5043 13.7011 35.9168 15.047 35.9168 17C35.9168 18.953 34.5043 20.299 32.6968 21.4342C30.8667 22.5835 28.1691 23.7972 24.7414 25.3393L13.4653 30.4125C11.3703 31.3551 9.74046 32.0884 8.46784 32.5643C7.22252 33.03 6.10955 33.3358 5.11991 33.2282C2.71954 32.9672 0.654049 31.3212 0.15415 28.9973C-0.0577231 28.0124 0.238537 26.9106 0.664191 25.7661C1.10491 24.581 1.80538 23.0594 2.69776 21.1209L2.72182 21.0686C3.41926 19.5535 3.68766 18.9557 3.82461 18.3593C4.03062 17.4621 4.03062 16.5379 3.82461 15.6407C3.68766 15.0443 3.41926 14.4465 2.72182 12.9314L2.69776 12.8792C1.80538 10.9407 1.10491 9.41906 0.664191 8.23397C0.238537 7.0894 -0.0577229 5.98761 0.154152 5.0027C0.654052 2.67888 2.71954 1.03287 5.11991 0.771848C6.10955 0.664232 7.22252 0.970061 8.46784 1.43574C9.74047 1.91163 11.3703 2.64491 13.4653 3.5875ZM7.59221 3.77738C6.36858 3.31981 5.74348 3.21878 5.39017 3.2572C3.91006 3.41815 2.84116 4.39924 2.59824 5.52847C2.55304 5.73858 2.5846 6.22567 3.0074 7.36256C3.41118 8.44831 4.07116 9.88406 4.99275 11.886C5.01294 11.9299 5.0329 11.9732 5.05262 12.0161C5.67097 13.3589 6.05938 14.2024 6.2612 15.0812C6.55176 16.3466 6.55176 17.6534 6.2612 18.9188C6.05938 19.7977 5.67097 20.6412 5.05261 21.984C5.03289 22.0268 5.01294 22.0701 4.99275 22.114C4.07116 24.116 3.41118 25.5517 3.0074 26.6375C2.5846 27.7744 2.55304 28.2614 2.59824 28.4716C2.84116 29.6008 3.91006 30.5819 5.39017 30.7428C5.74348 30.7812 6.36858 30.6802 7.5922 30.2227C8.7794 29.7787 10.3351 29.0795 12.4847 28.1123L23.6145 23.1049C27.165 21.5075 29.702 20.3628 31.3671 19.3171C33.0727 18.2459 33.4168 17.5501 33.4168 17C33.4168 16.45 33.0727 15.7541 31.3671 14.683C29.702 13.6372 27.165 12.4925 23.6145 10.8951L12.4847 5.8877C10.3351 4.92056 8.7794 4.22132 7.59221 3.77738Z" fill="#B39DDB"/>
</svg>
